<svg id="Twotone" height="512" viewBox="0 0 64 64" width="512" xmlns="http://www.w3.org/2000/svg"><path d="m40.31 17.69a16 16 0 1 0 0 22.62 16 16 0 0 0 0-22.62zm-2.82 19.8a12 12 0 1 1 0-17 12 12 0 0 1 0 17z" fill="#a8dba8"/><path d="m19.51 23.51a12 12 0 0 1 20.28 10.72 12 12 0 1 0 -22.58-7.46 12.08 12.08 0 0 1 2.3-3.26z" fill="#cff09e"/><rect fill="#79bd9a" height="17" rx="2" transform="matrix(.707 -.707 .707 .707 -21.95 52.99)" width="8" x="48.99" y="44.49"/><path d="m60 17-7-7h7z" fill="#a8dba8"/><path d="m6 54h4v7h-4z" fill="#79bd9a"/><path d="m14 47h4v14h-4z" fill="#79bd9a"/><path d="m22 51h4v10h-4z" fill="#79bd9a"/><path d="m3.73 6.13a6 6 0 1 1 5.27 8.87v-6z" fill="#cff09e"/><path d="m9 9v6a6 6 0 0 1 -5.27-8.87z" fill="#79bd9a"/><path d="m21 20-.53.47a12 12 0 0 0 17 17c.16-.17.31-.35.47-.53z" fill="#cff09e"/><path d="m41.63 38.8a15 15 0 0 1 -2.83 2.83l6.76 6.76 2.83-2.83z" fill="#a8dba8"/><g fill="#3b8686"><path d="m61.12 54.05-9.19-9.19a3 3 0 0 0 -3.41-.58l-5.52-5.58a16.89 16.89 0 0 0 3-9.7 17.24 17.24 0 0 0 -.52-4.13l11-10 2.8 2.81a1 1 0 0 0 .72.32.84.84 0 0 0 .38-.08 1 1 0 0 0 .62-.92v-7a1 1 0 0 0 -1-1h-7a1 1 0 0 0 -.92.62 1 1 0 0 0 .21 1.09l2.78 2.78-10.26 9.28a17 17 0 0 0 -15.81-10.77 16.65 16.65 0 0 0 -2 .13v-3.13a1 1 0 0 0 -1-1h-7a1 1 0 0 0 0 2h6v2.49a17 17 0 0 0 -11.19 24.12l-11.45 9.62a1 1 0 0 0 -.13 1.41 1 1 0 0 0 .77.36 1 1 0 0 0 .64-.23l11.18-9.39a17 17 0 0 0 14.18 7.62 17.05 17.05 0 0 0 5-.75v9.75h-4a1 1 0 0 0 0 2h5a1 1 0 0 0 1-1v-11.52a16 16 0 0 0 2.7-1.48l5.58 5.57a3 3 0 0 0 .58 3.41l9.19 9.19a3 3 0 0 0 4.24 0l2.83-2.83a3 3 0 0 0 0-4.29zm-2.12-43.05v3.59l-3.59-3.59zm-30 3a15 15 0 0 1 14.21 10.22l-1.65 1.5a12.79 12.79 0 0 0 -3.37-5.91 13 13 0 0 0 -11.19-3.64v-2a14.71 14.71 0 0 1 2-.17zm6 20a1 1 0 0 0 -1 1v3.79a11 11 0 0 1 -12.78-2 10.74 10.74 0 0 1 -1.75-2.31l6.37-5.35a3 3 0 0 1 4.05.18l1.71 1.69a5 5 0 0 0 6.89.17l1.51-1.3a10.93 10.93 0 0 1 -3.17 6.91 10.27 10.27 0 0 1 -.78.7v-2.48a1 1 0 0 0 -1.05-1zm2.15-4.29a3 3 0 0 1 -4.15-.11l-1.7-1.71a5 5 0 0 0 -6.75-.3l-5.94 5a11 11 0 0 1 6.39-13.83v4.24a1 1 0 0 0 2 0v-4.81a11.19 11.19 0 0 1 2-.19 10.94 10.94 0 0 1 10.85 9.26zm-23.15-.71a15 15 0 0 1 11-14.45v2.09a13 13 0 0 0 -8 17.36l-1.59 1.34a15 15 0 0 1 -1.41-6.34zm15 15a14.93 14.93 0 0 1 -10.61-4.39 15.68 15.68 0 0 1 -2-2.53l1.55-1.31a12.76 12.76 0 0 0 1.89 2.42 13 13 0 0 0 14.17 2.81v2.14a15 15 0 0 1 -5 .86zm7-4a13 13 0 0 0 6-11.89l1.82-1.64a15.67 15.67 0 0 1 .18 2.53 15 15 0 0 1 -8 13.27zm5 1c.24-.24.45-.49.67-.74l5.33 5.3-1.44 1.44-5.28-5.29c.25-.24.5-.45.72-.71zm18.71 15.88-2.83 2.83a1 1 0 0 1 -1.42 0l-9.19-9.2a1 1 0 0 1 -.29-.7 1 1 0 0 1 .29-.71l2.83-2.83a1 1 0 0 1 1.41 0l9.2 9.19a1 1 0 0 1 0 1.42z"/><path d="m33 20a3 3 0 1 0 3 3 3 3 0 0 0 -3-3zm0 4a1 1 0 1 1 1-1 1 1 0 0 1 -1 1z"/><path d="m30.71 32.29a1 1 0 0 0 -1.42 0l-1.29 1.3-1.29-1.3a1 1 0 0 0 -1.42 1.42l1.3 1.29-1.3 1.29a1 1 0 0 0 0 1.42 1 1 0 0 0 1.42 0l1.29-1.3 1.29 1.3a1 1 0 0 0 1.42 0 1 1 0 0 0 0-1.42l-1.3-1.29 1.3-1.29a1 1 0 0 0 0-1.42z"/><path d="m4 34a3 3 0 1 0 3-3 3 3 0 0 0 -3 3zm4 0a1 1 0 1 1 -1-1 1 1 0 0 1 1 1z"/><path d="m55.71 24.29a1 1 0 0 0 -1.42 0l-1.29 1.3-1.29-1.3a1 1 0 0 0 -1.42 1.42l1.3 1.29-1.3 1.29a1 1 0 0 0 0 1.42 1 1 0 0 0 1.42 0l1.29-1.3 1.29 1.3a1 1 0 0 0 1.42 0 1 1 0 0 0 0-1.42l-1.3-1.29 1.3-1.29a1 1 0 0 0 0-1.42z"/><path d="m10 53h-4a1 1 0 0 0 -1 1v7a1 1 0 0 0 1 1h4a1 1 0 0 0 1-1v-7a1 1 0 0 0 -1-1zm-1 7h-2v-5h2z"/><path d="m18 46h-4a1 1 0 0 0 -1 1v14a1 1 0 0 0 1 1h4a1 1 0 0 0 1-1v-14a1 1 0 0 0 -1-1zm-1 14h-2v-12h2z"/><path d="m26 50h-4a1 1 0 0 0 -1 1v10a1 1 0 0 0 1 1h4a1 1 0 0 0 1-1v-10a1 1 0 0 0 -1-1zm-1 10h-2v-8h2z"/><path d="m9 16a7 7 0 1 0 -6.15-10.35 7.09 7.09 0 0 0 -.85 3.35 7 7 0 0 0 7 7zm-5-7a5.23 5.23 0 0 1 .22-1.47l3.78 2.06v4.31a5 5 0 0 1 -4-4.9zm5-5a5 5 0 0 1 1 9.9v-4.9a1 1 0 0 0 -.52-.88l-4.3-2.34a5 5 0 0 1 3.82-1.78z"/></g></svg>